name rise49.25peak52.1432fall72.8391.mot
datacolumns 19
datarows 12
range 5.29499400000000 5.31330900000000
endheader
time	ground_force1_vx	ground_force1_vy	ground_force1_vz	ground_force1_px	ground_force1_py	ground_force1_pz	ground_force2_vx	ground_force2_vy	ground_force2_vz	ground_force2_px	ground_force2_py	ground_force2_pz	ground_torque1_x	ground_torque1_y	ground_torque1_z	ground_torque2_x	ground_torque2_y	ground_torque2_z	
5.29499400000000	59.67517100000000	779.89739199999997	62.57974300000000	0.32299100000000	0.00000000000000	0.11171200000000	0.00000000000000	0.00000000000000	0.00000000000000	0.00000000000000	0.00000000000000	0.00000000000000	0.00000000000000	26.60187900000000	0.00000000000000	0.00000000000000	0.00000000000000	0.00000000000000	
5.29664600000000	59.06374400000000	783.07485699999995	62.72563400000000	0.32237700000000	0.00000000000000	0.11165700000000	0.00000000000000	0.00000000000000	0.00000000000000	0.00000000000000	0.00000000000000	0.00000000000000	0.00000000000000	26.70778900000000	0.00000000000000	0.00000000000000	0.00000000000000	0.00000000000000	
5.29831300000000	58.45363000000000	786.08651099999997	62.86220700000000	0.32179300000000	0.00000000000000	0.11160000000000	0.00000000000000	0.00000000000000	0.00000000000000	0.00000000000000	0.00000000000000	0.00000000000000	0.00000000000000	26.81008300000000	0.00000000000000	0.00000000000000	0.00000000000000	0.00000000000000	
5.30000600000000	57.84549400000000	788.92971699999998	62.98944100000000	0.32123800000000	0.00000000000000	0.11154200000000	0.00000000000000	0.00000000000000	0.00000000000000	0.00000000000000	0.00000000000000	0.00000000000000	0.00000000000000	26.90862700000000	0.00000000000000	0.00000000000000	0.00000000000000	0.00000000000000	
5.30164800000000	57.23991900000000	791.60209199999997	63.10727200000000	0.32071100000000	0.00000000000000	0.11148200000000	0.00000000000000	0.00000000000000	0.00000000000000	0.00000000000000	0.00000000000000	0.00000000000000	0.00000000000000	27.00326400000000	0.00000000000000	0.00000000000000	0.00000000000000	0.00000000000000	
5.30331000000000	56.63741400000000	794.10152200000005	63.21559600000000	0.32020900000000	0.00000000000000	0.11142100000000	0.00000000000000	0.00000000000000	0.00000000000000	0.00000000000000	0.00000000000000	0.00000000000000	0.00000000000000	27.09381100000000	0.00000000000000	0.00000000000000	0.00000000000000	0.00000000000000	
5.30499100000000	56.03841200000000	796.42617399999995	63.31426900000000	0.31973100000000	0.00000000000000	0.11135900000000	0.00000000000000	0.00000000000000	0.00000000000000	0.00000000000000	0.00000000000000	0.00000000000000	0.00000000000000	27.18006400000000	0.00000000000000	0.00000000000000	0.00000000000000	0.00000000000000	
5.30664100000000	55.44327400000000	798.57451500000002	63.40311200000000	0.31927500000000	0.00000000000000	0.11129600000000	0.00000000000000	0.00000000000000	0.00000000000000	0.00000000000000	0.00000000000000	0.00000000000000	0.00000000000000	27.26179600000000	0.00000000000000	0.00000000000000	0.00000000000000	0.00000000000000	
5.30831400000000	54.85229200000000	800.54531699999995	63.48191800000000	0.31883800000000	0.00000000000000	0.11123200000000	0.00000000000000	0.00000000000000	0.00000000000000	0.00000000000000	0.00000000000000	0.00000000000000	0.00000000000000	27.33876600000000	0.00000000000000	0.00000000000000	0.00000000000000	0.00000000000000	
5.30997900000000	54.26569400000000	802.33767599999999	63.55045200000000	0.31841800000000	0.00000000000000	0.11116700000000	0.00000000000000	0.00000000000000	0.00000000000000	0.00000000000000	0.00000000000000	0.00000000000000	0.00000000000000	27.41071800000000	0.00000000000000	0.00000000000000	0.00000000000000	0.00000000000000	
5.31164200000000	53.68364500000000	803.95101199999999	63.60845700000000	0.31801400000000	0.00000000000000	0.11110100000000	0.00000000000000	0.00000000000000	0.00000000000000	0.00000000000000	0.00000000000000	0.00000000000000	0.00000000000000	27.47738200000000	0.00000000000000	0.00000000000000	0.00000000000000	0.00000000000000	
5.31330900000000	53.10625300000000	805.38508600000000	63.65565800000000	0.31762300000000	0.00000000000000	0.11103400000000	0.00000000000000	0.00000000000000	0.00000000000000	0.00000000000000	0.00000000000000	0.00000000000000	0.00000000000000	27.53848000000000	0.00000000000000	0.00000000000000	0.00000000000000	0.00000000000000	
